<?xml version="1.0" encoding="utf-8"?>
<!-- Generator: Adobe Illustrator 21.0.0, SVG Export Plug-In . SVG Version: 6.00 Build 0)  -->
<svg version="1.1" id="Layer_1" xmlns="http://www.w3.org/2000/svg" xmlns:xlink="http://www.w3.org/1999/xlink" x="0px" y="0px"
	 viewBox="0 0 400 400" style="enable-background:new 0 0 400 400;" xml:space="preserve">
<style type="text/css">
	.st0{fill:#FFFFFF;}
	.st1{fill:url(#SVGID_1_);}
	.st2{fill:url(#SVGID_2_);}
	.st3{fill:url(#SVGID_3_);}
	.st4{fill:url(#SVGID_4_);}
	.st5{fill:url(#SVGID_5_);}
	.st6{fill:url(#SVGID_6_);}
	.st7{fill:url(#SVGID_7_);}
	.st8{fill:url(#SVGID_8_);}
	.st9{fill:#6D7C8C;}
	.st10{fill:none;}
	.st11{fill:url(#SVGID_9_);}
	.st12{fill:url(#SVGID_10_);}
	.st13{opacity:0.59;fill:url(#SVGID_11_);}
	.st14{fill:url(#SVGID_12_);}
	.st15{fill:url(#SVGID_13_);}
	.st16{fill:none;stroke:url(#SVGID_14_);stroke-width:1.381;stroke-miterlimit:10;}
	.st17{fill:url(#SVGID_15_);}
	.st18{fill:url(#SVGID_16_);}
	.st19{fill:#ECEFF1;}
	.st20{fill:#4CAF50;}
	.st21{fill:#FAFAFA;}
	.st22{fill:url(#SVGID_17_);}
	.st23{fill:#4B3954;}
	.st24{fill:#2DB5EA;}
</style>
<g>
	<linearGradient id="SVGID_1_" gradientUnits="userSpaceOnUse" x1="178.1756" y1="174.1576" x2="187.4677" y2="174.1576">
		<stop  offset="0" style="stop-color:#8008A1"/>
		<stop  offset="1" style="stop-color:#C60582"/>
	</linearGradient>
	<path class="st1" d="M178.2,169.4v9.5c0,2.6,2.1,4.6,4.7,4.6c2.6,0,4.6-2.1,4.6-4.6v-9.5c0-3.4-3.6-5.9-7.2-4
		c-1.3,0.7-2.1,2.2-2.1,3.7V169.4z"/>
	<linearGradient id="SVGID_2_" gradientUnits="userSpaceOnUse" x1="224.1624" y1="224.8672" x2="242.9082" y2="224.8672">
		<stop  offset="0" style="stop-color:#8008A1"/>
		<stop  offset="1" style="stop-color:#C60582"/>
	</linearGradient>
	<path class="st2" d="M238.3,229.5c3.2,0,5.7-3.3,4.2-6.7c-0.7-1.6-2.4-2.6-4.1-2.6h-9.6c-1.8,0-3.4,1-4.1,2.6
		c-1.5,3.4,1,6.7,4.2,6.7l0,0H238.3z"/>
	<linearGradient id="SVGID_3_" gradientUnits="userSpaceOnUse" x1="178.1756" y1="274.9781" x2="187.4677" y2="274.9781">
		<stop  offset="0" style="stop-color:#8008A1"/>
		<stop  offset="1" style="stop-color:#C60582"/>
	</linearGradient>
	<path class="st3" d="M187.5,279.7l0-9.5c0-1.8-1-3.4-2.6-4.1c-3.4-1.5-6.7,1-6.7,4.2l0,0v9.5c0,1.8,1,3.4,2.6,4.1
		C184.2,285.4,187.5,282.9,187.5,279.7z"/>
	<linearGradient id="SVGID_4_" gradientUnits="userSpaceOnUse" x1="123.3512" y1="224.8673" x2="142.0976" y2="224.8673">
		<stop  offset="0" style="stop-color:#8008A1"/>
		<stop  offset="1" style="stop-color:#C60582"/>
	</linearGradient>
	<path class="st4" d="M127.9,220.2c-1.8,0-3.4,1-4.1,2.6c-1.5,3.4,1,6.7,4.2,6.7l0,0h9.5c1.8,0,3.4-1,4.1-2.6c1.5-3.4-1-6.7-4.2-6.7
		H127.9z"/>
	<path class="st0" d="M298.6,213.5c-3.2-2.8-7.4-4.1-11.6-3.5l-7.6,1c-0.2-1.7-0.5-3.4-0.8-5.1c-1.9-9.4-5.1-18.5-9.7-27L252,194.5
		c2.2,5,3.9,10.2,4.9,15.6c8,40.8-18.6,80.3-59.4,88.3c-9.5,1.9-19.3,1.9-28.9,0c-29.9-6.1-53.3-29.4-59.3-59.3
		c-1.9-9.6-1.9-19.4,0-28.9c8-40.8,47.5-67.3,88.3-59.3c5.8,1.2,11.5,3,16.9,5.5l15.5-16.8c-8.8-4.9-18.3-8.4-28.2-10.4
		c-1.7-0.3-3.4-0.6-5.1-0.8l1-7.6c0.1-0.6,0.1-1.3,0.1-1.9c0-8.1-6.6-14.7-14.7-14.6c-8.1,0-14.7,6.6-14.6,14.7c0,0.6,0,1.2,0.1,1.8
		l1,7.6c-1.7,0.2-3.4,0.5-5.1,0.8c-38.7,7.8-68.9,38-76.7,76.7c-0.3,1.7-0.6,3.4-0.9,5.1l-7.6-1c-8-1-15.4,4.7-16.4,12.7
		c-0.1,0.6-0.1,1.2-0.1,1.9c0,8.1,6.6,14.7,14.7,14.7c0.6,0,1.2,0,1.8-0.1l7.6-1c0.3,1.7,0.5,3.4,0.9,5.1
		c7.8,38.7,38,68.9,76.7,76.7c1.7,0.3,3.4,0.6,5.1,0.8l-1,7.7c-0.1,0.6-0.1,1.3-0.1,1.9c0,8.1,6.6,14.7,14.7,14.6
		c8.1,0,14.7-6.6,14.6-14.7c0-0.6,0-1.2-0.1-1.8l-1-7.7c1.7-0.2,3.4-0.5,5.1-0.8c38.7-7.8,68.9-38,76.7-76.7
		c0.4-1.7,0.6-3.4,0.9-5.1l7.6,1c0.6,0.1,1.3,0.1,1.9,0.1c8.1,0,14.7-6.6,14.6-14.7C303.6,220.3,301.7,216.3,298.6,213.5z"/>
	<path class="st0" d="M332.7,76l-12.4-31l-44.6,44.6L281,103l-94.4,101.8c-10.9-1.9-21.4,5.3-23.3,16.3
		c-1.9,10.9,5.3,21.4,16.3,23.3c10.9,1.9,21.4-5.3,23.3-16.3c0.2-1.2,0.3-2.3,0.3-3.5c0-0.6,0-1.2-0.1-1.9l102.5-95.1l13.4,5.3
		l44.6-44.6L332.7,76z"/>
</g>
</svg>
