<?xml version="1.0" encoding="utf-8"?>
<!-- Generator: Adobe Illustrator 21.0.0, SVG Export Plug-In . SVG Version: 6.00 Build 0)  -->
<svg version="1.1" id="Layer_1" xmlns="http://www.w3.org/2000/svg" xmlns:xlink="http://www.w3.org/1999/xlink" x="0px" y="0px"
	 viewBox="0 0 400 400" style="enable-background:new 0 0 400 400;" xml:space="preserve">
<style type="text/css">
	.st0{fill:#FFFFFF;}
	.st1{fill:url(#SVGID_1_);}
	.st2{fill:url(#SVGID_2_);}
	.st3{fill:url(#SVGID_3_);}
	.st4{fill:url(#SVGID_4_);}
	.st5{fill:url(#SVGID_5_);}
	.st6{fill:url(#SVGID_6_);}
	.st7{fill:url(#SVGID_7_);}
	.st8{fill:url(#SVGID_8_);}
	.st9{fill:#6D7C8C;}
	.st10{fill:none;}
	.st11{fill:url(#SVGID_9_);}
	.st12{fill:url(#SVGID_10_);}
	.st13{opacity:0.59;fill:url(#SVGID_11_);}
	.st14{fill:url(#SVGID_12_);}
	.st15{fill:url(#SVGID_13_);}
	.st16{fill:none;stroke:url(#SVGID_14_);stroke-width:1.381;stroke-miterlimit:10;}
	.st17{fill:url(#SVGID_15_);}
	.st18{fill:url(#SVGID_16_);}
	.st19{fill:#ECEFF1;}
	.st20{fill:#4CAF50;}
	.st21{fill:#FAFAFA;}
	.st22{fill:url(#SVGID_17_);}
	.st23{fill:#4B3954;}
	.st24{fill:#2DB5EA;}
</style>
<g>
	<path class="st0" d="M321.5,291.6V159.3c0-14.9-11.8-26.9-26.5-26.9h-0.5h-54.4l-0.1,19.5h54.5c4.1,0,7.4,3.3,7.4,7.5v132.2h-67.9
		c-0.4,1.3-1,2.5-1.8,3.6c-2.8,4.2-7.4,6.7-12.4,6.7h-39.6c-4.9,0-9.6-2.5-12.4-6.7c-0.7-1.1-1.3-2.3-1.8-3.6H98.3V159.3
		c0-4.1,3.3-7.5,7.5-7.5h0h54.4l0.1-19.5h-55c-14.6,0-26.4,12-26.5,26.9c0,0,0,0,0,0v132.2H50.2v0c0,5.4,3.7,10.5,8.3,14.7
		c3.5,2.8,7.4,5,11.6,6.4c6.2,2,12.5,3.3,18.9,4.1c5.7,0.8,11.5,1.2,17.3,0l94.2,1.1h94.2c5.8,0,11.6-0.4,17.3-1.2
		c6.4-0.7,12.7-2.1,18.9-4.1c4.2-1.4,8.1-3.6,11.6-6.4c4.6-4.2,7.6-14.7,7.6-14.7v0L321.5,291.6z"/>
	<linearGradient id="SVGID_1_" gradientUnits="userSpaceOnUse" x1="175.3807" y1="180.833" x2="224.7177" y2="180.833">
		<stop  offset="0" style="stop-color:#8008A1"/>
		<stop  offset="1" style="stop-color:#C60582"/>
	</linearGradient>
	<path class="st1" d="M193.1,81.1c-7-0.2-13.5,3.8-15.9,10.4c-0.7,1.8-1,3.7-1.1,5.6l-0.7,135.5c0,0.6,0.1,1.2,0.4,1.8l20.4,43.8
		c1,2.1,3.4,3,5.5,2c0.4-0.2,0.8-0.5,1.2-0.8c0.3-0.3,0.5-0.6,0.7-1l20.1-38c0.3-0.6,0.5-1.3,0.5-1.9l0.5-140.5
		c0.1-8.8-6.9-16-15.6-16.3L193.1,81.1z M215.6,238.1l-7.5,14.1c-2.5,0-12.3-0.4-14.4-0.7L185,233l6.7-6.7l5.8,5.8
		c1.6,1.6,4.2,1.6,5.8,0c0,0,0,0,0,0l5.1-5.1L215.6,238.1z"/>
</g>
</svg>
