<?xml version="1.0" encoding="utf-8"?>
<!-- Generator: Adobe Illustrator 21.0.0, SVG Export Plug-In . SVG Version: 6.00 Build 0)  -->
<svg version="1.1" id="Layer_1" xmlns="http://www.w3.org/2000/svg" xmlns:xlink="http://www.w3.org/1999/xlink" x="0px" y="0px"
	 viewBox="0 0 400 400" style="enable-background:new 0 0 400 400;" xml:space="preserve">
<style type="text/css">
	.st0{fill:#FFFFFF;}
	.st1{fill:url(#SVGID_1_);}
	.st2{fill:url(#SVGID_2_);}
	.st3{fill:url(#SVGID_3_);}
	.st4{fill:url(#SVGID_4_);}
	.st5{fill:url(#SVGID_5_);}
	.st6{fill:url(#SVGID_6_);}
	.st7{fill:url(#SVGID_7_);}
	.st8{fill:url(#SVGID_8_);}
	.st9{fill:#6D7C8C;}
	.st10{fill:none;}
	.st11{fill:url(#SVGID_9_);}
	.st12{fill:url(#SVGID_10_);}
	.st13{opacity:0.59;fill:url(#SVGID_11_);}
	.st14{fill:url(#SVGID_12_);}
	.st15{fill:url(#SVGID_13_);}
	.st16{fill:none;stroke:url(#SVGID_14_);stroke-width:1.381;stroke-miterlimit:10;}
	.st17{fill:url(#SVGID_15_);}
	.st18{fill:url(#SVGID_16_);}
	.st19{fill:#ECEFF1;}
	.st20{fill:#4CAF50;}
	.st21{fill:#FAFAFA;}
	.st22{fill:url(#SVGID_17_);}
	.st23{fill:#4B3954;}
	.st24{fill:#2DB5EA;}
</style>
<g>
	<linearGradient id="SVGID_1_" gradientUnits="userSpaceOnUse" x1="152.9093" y1="237.2137" x2="186.6828" y2="237.2137">
		<stop  offset="0" style="stop-color:#8008A1"/>
		<stop  offset="1" style="stop-color:#C60582"/>
	</linearGradient>
	<path class="st1" d="M154.8,256.5l0.1,0c4.6-1.8,22.9-5.5,27.9-11.8l0,0c3.6-4.4,4.8-10.3,3.3-15.8c-1.8-6.2-7.3-10.6-13.8-11
		c-5.8-0.3-11.5,2.3-15,6.9c-5,6.3-3.6,25.3-4.2,30.1l0,0.1c-0.1,0.7,0.4,1.4,1.1,1.5C154.3,256.6,154.5,256.6,154.8,256.5z"/>
	<linearGradient id="SVGID_2_" gradientUnits="userSpaceOnUse" x1="175.732" y1="192.4451" x2="236.5668" y2="192.4451">
		<stop  offset="0" style="stop-color:#8008A1"/>
		<stop  offset="1" style="stop-color:#C60582"/>
	</linearGradient>
	<path class="st2" d="M188.6,225.9c0,0.1,0.1,0.3,0.1,0.4c0.5-0.5,1.1-1.1,1.6-1.6c5.8-5.9,11.5-12.3,17.2-19
		c5.9-7,11-13.7,15.6-20.4c2.6-3.8,4.9-7.3,7-10.9c0.4-0.6,0.7-1.2,1.1-1.8c0.2-0.3,0.4-0.7,0.6-1l0.5-0.9c0.4-0.7,0.7-1.3,1.1-2
		c1.3-2.3,2.2-4.2,3-6l0,0c0.4-0.9,0.3-1.9-0.2-2.7c-0.8-1.3-2.6-1.8-4-0.9c-1.7,1-3.4,2.2-5.5,3.8c-0.6,0.5-1.2,0.9-1.8,1.4
		l-0.8,0.6c-0.3,0.2-0.6,0.5-0.9,0.7c-0.6,0.4-1.1,0.9-1.7,1.3c-3.2,2.6-6.5,5.4-9.8,8.5c-6,5.5-12,11.5-18.1,18.3
		c-5.9,6.5-11.4,13.1-16.5,19.7c-0.5,0.6-0.9,1.2-1.4,1.8C181.8,215.8,186.9,220,188.6,225.9L188.6,225.9z"/>
	<path class="st0" d="M330.1,87.8H205.7V72.3c0-5.2-3.5-10-8.6-11.2c-7.3-1.6-13.9,3.8-13.9,10.8v15.8H58.8
		c-7.9,0-14.4,6.4-14.4,14.4v2.8c0,7.9,6.4,14.4,14.4,14.4H59v173.2c0,6.6,5.4,12,12,12h52.3L112,345.5c-1.7,6.3,2,12.7,8.3,14.4
		c6.3,1.7,12.8-2,14.5-8.2l5.3-19.3l2.5-9l5.2-18.8h90.5l5.2,18.8l2.5,9l5.3,19.3c1.4,5.1,6.1,8.6,11.4,8.6c4,0,7.9-2,10.3-5.7
		c1.7-2.7,2-6,1.2-9.1l0,0l-11.3-40.9h55.1c6.6,0,12-5.4,12-12V119.4c8,0,14.5-6.5,14.5-14.4v0v-2.7C344.4,94.3,338,87.8,330.1,87.8
		z M310.1,284.8H78.8V130.1h231.3L310.1,284.8z"/>
</g>
</svg>
