<?xml version="1.0" encoding="utf-8"?>
<!-- Generator: Adobe Illustrator 21.0.0, SVG Export Plug-In . SVG Version: 6.00 Build 0)  -->
<svg version="1.1" id="Layer_1" xmlns="http://www.w3.org/2000/svg" xmlns:xlink="http://www.w3.org/1999/xlink" x="0px" y="0px"
	 viewBox="0 0 400 400" style="enable-background:new 0 0 400 400;" xml:space="preserve">
<style type="text/css">
	.st0{fill:#FFFFFF;}
	.st1{fill:url(#SVGID_1_);}
	.st2{fill:url(#SVGID_2_);}
	.st3{fill:url(#SVGID_3_);}
	.st4{fill:url(#SVGID_4_);}
	.st5{fill:url(#SVGID_5_);}
	.st6{fill:url(#SVGID_6_);}
	.st7{fill:url(#SVGID_7_);}
	.st8{fill:url(#SVGID_8_);}
	.st9{fill:#6D7C8C;}
	.st10{fill:none;}
	.st11{fill:url(#SVGID_9_);}
	.st12{fill:url(#SVGID_10_);}
	.st13{opacity:0.59;fill:url(#SVGID_11_);}
	.st14{fill:url(#SVGID_12_);}
	.st15{fill:url(#SVGID_13_);}
	.st16{fill:none;stroke:url(#SVGID_14_);stroke-width:1.381;stroke-miterlimit:10;}
	.st17{fill:url(#SVGID_15_);}
	.st18{fill:url(#SVGID_16_);}
	.st19{fill:#ECEFF1;}
	.st20{fill:#4CAF50;}
	.st21{fill:#FAFAFA;}
	.st22{fill:url(#SVGID_17_);}
	.st23{fill:#4B3954;}
	.st24{fill:#2DB5EA;}
</style>
<g>
	<g>
		<path class="st0" d="M175.5,70.6c-31.8,0-57.5,25.8-57.5,57.5s25.8,57.5,57.5,57.5s57.5-25.8,57.5-57.5S207.3,70.6,175.5,70.6
			 M276.2,184.6c-1.9,0-3.5,1.3-3.7,3l-2.7,19c-4.3,1.9-8.5,4.2-12.2,6.8l-17.8-7.2c-1.6,0-3.5,0-4.5,1.9l-14.4,24.9
			c-0.9,1.6-0.6,3.5,0.9,4.6l15.2,11.8c-0.3,2.4-0.4,4.7-0.4,7.2c0,2.4,0.1,4.7,0.4,7.2l-15.2,11.8c-1.3,1.2-1.7,3-0.9,4.6
			l14.4,24.9c0.9,1.9,2.7,1.9,4.5,1.9l17.8-7.2c3.7,2.6,7.8,5,12.2,6.8l2.7,19c0.3,1.7,1.7,3,3.7,3H305c1.6,0,3.2-1.3,3.5-3l2.7-19
			c4.3-1.9,8.2-4.2,12.1-6.8l17.7,7.2c1.9,0,3.7,0,4.7-1.9l14.4-24.9c0.9-1.6,0.4-3.5-0.9-4.6l-15.4-11.8c0.3-2.4,0.6-4.7,0.6-7.2
			c0-2.4-0.1-4.7-0.6-7.2l15.2-11.8c1.3-1.2,1.7-3,0.9-4.6l-14.4-24.9c-0.9-1.9-2.7-1.9-4.6-1.9l-17.7,7.2c-3.9-2.6-7.8-5-12.2-6.8
			l-2.7-19c-0.1-1.7-1.7-3-3.3-3H276.2 M175.5,214.9c-63.6,0-115,25.7-115,57.5v28.8h139.2c-6.4-13.5-9.8-28.2-9.8-43.1
			c0-14.4,3.2-28.7,9.2-41.8C191.5,215.3,183.6,214.9,175.5,214.9 M290.6,236c11.9,0,21.6,9.6,21.6,21.6c0,11.9-9.6,21.6-21.6,21.6
			c-12.1,0-21.6-9.6-21.6-21.6C269,245.6,278.7,236,290.6,236z"/>
	</g>
	<linearGradient id="SVGID_1_" gradientUnits="userSpaceOnUse" x1="220.3639" y1="256.5253" x2="360.4996" y2="256.5253">
		<stop  offset="0" style="stop-color:#8008A1"/>
		<stop  offset="1" style="stop-color:#C60582"/>
	</linearGradient>
	<path class="st1" d="M276.2,184.6c-1.9,0-3.5,1.3-3.7,3l-2.7,19c-4.3,1.9-8.5,4.2-12.2,6.8l-17.8-7.2c-1.6,0-3.5,0-4.5,1.9
		l-14.4,24.9c-0.9,1.6-0.6,3.5,0.9,4.6l15.2,11.8c-0.3,2.4-0.4,4.7-0.4,7.2c0,2.4,0.1,4.7,0.4,7.2l-15.2,11.8
		c-1.3,1.2-1.7,3-0.9,4.6l14.4,24.9c0.9,1.9,2.7,1.9,4.5,1.9l17.8-7.2c3.7,2.6,7.8,5,12.2,6.8l2.7,19c0.3,1.7,1.7,3,3.7,3H305
		c1.6,0,3.2-1.3,3.5-3l2.7-19c4.3-1.9,8.2-4.2,12.1-6.8l17.7,7.2c1.9,0,3.7,0,4.7-1.9l14.4-24.9c0.9-1.6,0.4-3.5-0.9-4.6l-15.4-11.8
		c0.3-2.4,0.6-4.7,0.6-7.2c0-2.4-0.1-4.7-0.6-7.2l15.2-11.8c1.3-1.2,1.7-3,0.9-4.6l-14.4-24.9c-0.9-1.9-2.7-1.9-4.6-1.9l-17.7,7.2
		c-3.9-2.6-7.8-5-12.2-6.8l-2.7-19c-0.1-1.7-1.7-3-3.3-3H276.2"/>
</g>
</svg>
