<?xml version="1.0" encoding="utf-8"?>
<!-- Generator: Adobe Illustrator 21.0.0, SVG Export Plug-In . SVG Version: 6.00 Build 0)  -->
<svg version="1.1" id="Layer_1" xmlns="http://www.w3.org/2000/svg" xmlns:xlink="http://www.w3.org/1999/xlink" x="0px" y="0px"
	 viewBox="0 0 400 400" style="enable-background:new 0 0 400 400;" xml:space="preserve">
<style type="text/css">
	.st0{fill:#FFFFFF;}
	.st1{fill:url(#SVGID_1_);}
	.st2{fill:url(#SVGID_2_);}
	.st3{fill:url(#SVGID_3_);}
	.st4{fill:url(#SVGID_4_);}
	.st5{fill:url(#SVGID_5_);}
	.st6{fill:url(#SVGID_6_);}
	.st7{fill:url(#SVGID_7_);}
	.st8{fill:url(#SVGID_8_);}
	.st9{fill:#6D7C8C;}
	.st10{fill:none;}
	.st11{fill:url(#SVGID_9_);}
	.st12{fill:url(#SVGID_10_);}
	.st13{opacity:0.59;fill:url(#SVGID_11_);}
	.st14{fill:url(#SVGID_12_);}
	.st15{fill:url(#SVGID_13_);}
	.st16{fill:none;stroke:url(#SVGID_14_);stroke-width:1.381;stroke-miterlimit:10;}
	.st17{fill:url(#SVGID_15_);}
	.st18{fill:url(#SVGID_16_);}
	.st19{fill:#ECEFF1;}
	.st20{fill:#4CAF50;}
	.st21{fill:#FAFAFA;}
	.st22{fill:url(#SVGID_17_);}
	.st23{fill:#4B3954;}
	.st24{fill:#2DB5EA;}
</style>
<g>
	<g id="drawing-tablet_2_">
		<path class="st0" d="M320.2,44.7c10.5,10.5,10.5,27.4,0,37.9c0,0,0,0,0,0l-4.8,4.8l-37.9-37.9l5-4.8
			C292.9,34.4,309.7,34.4,320.2,44.7z"/>
		<linearGradient id="SVGID_1_" gradientUnits="userSpaceOnUse" x1="168.2911" y1="122.9814" x2="315.4019" y2="122.9814">
			<stop  offset="0" style="stop-color:#8008A1"/>
			<stop  offset="1" style="stop-color:#C60582"/>
		</linearGradient>
		<polygon class="st1" points="277.5,49.4 211.4,115.5 185.4,141.5 177.8,149.1 168.3,196.5 215.7,187 262.4,140.4 288.5,114.4 
			315.4,87.4 		"/>
		<polygon class="st9" points="199.9,125.4 200.5,126 192.9,133.6 183.4,181.2 231,171.6 277.8,124.9 278.3,125.4 317.5,125.4 
			317.5,282 134.6,282 134.6,125.4 		"/>
		<path class="st0" d="M343.8,112.1V294c0,7.2-5.8,13-13,13H70c-7.2,0-13-5.8-13-13V112.1c0-7.2,5.8-13,13-13h158l0.6,0.6L202.3,126
			l-0.6-0.6h-67.1V282h182.9V125.4H278l-0.5-0.5l26.3-26.3l0.5,0.5h26.5C338,99.1,343.8,105,343.8,112.1z"/>
		<path class="st10" d="M330.9,313.6H69.9c-10.8,0-19.5-8.7-19.5-19.5V99.5c0-3.8,3.1-7,7-7h172.9c0.7,0,1.3,0.3,1.8,0.8
			c5.4,5.7,1.5,12.4-4,12.4h-158c-3.6,0-6.5,2.9-6.5,6.5v181.7c0,3.6,2.9,6.5,6.5,6.5h260.7c3.6,0,6.5-2.9,6.5-6.5V112.2
			c0-3.6-2.9-6.5-6.5-6.5h-26.2c-3.1,0-6-2.1-6.6-5.2c-0.9-4.3,2.3-8,6.4-8h26.5c10.8,0,19.5,8.7,19.5,19.5v182
			C350.4,304.9,341.7,313.6,330.9,313.6z"/>
		<path class="st10" d="M317.6,288.6H135.9c-3.6,0-6.5-2.9-6.5-6.5V125.4c0-3.6,2.9-6.5,6.5-6.5h65.7c3.1,0,6,2.1,6.6,5.2
			c0.9,4.3-2.3,8-6.4,8h-60.5v143.4h169.7V132h-32.7c-3.1,0-6-2.1-6.6-5.2c-0.9-4.3,2.3-8,6.4-8h39.5c3.6,0,6.5,2.9,6.5,6.5v156.7
			C324.1,285.7,321.2,288.6,317.6,288.6z"/>
		<linearGradient id="SVGID_2_" gradientUnits="userSpaceOnUse" x1="82.9586" y1="138.1113" x2="108.9959" y2="138.1113">
			<stop  offset="0" style="stop-color:#800886"/>
			<stop  offset="1" style="stop-color:#990563"/>
		</linearGradient>
		<path class="st2" d="M96,151.1c-7.2,0-13-5.8-13-13c0-7.2,5.8-13,13-13s13,5.8,13,13C109,145.3,103.2,151.1,96,151.1z"/>
		<linearGradient id="SVGID_3_" gradientUnits="userSpaceOnUse" x1="82.9586" y1="177.1673" x2="108.9959" y2="177.1673">
			<stop  offset="0" style="stop-color:#800886"/>
			<stop  offset="1" style="stop-color:#990563"/>
		</linearGradient>
		<path class="st3" d="M96,190.2c-7.2,0-13-5.8-13-13s5.8-13,13-13s13,5.8,13,13S103.2,190.2,96,190.2z"/>
		<path class="st10" d="M183.6,187.2c-1.7,0-3.4-0.7-4.6-1.9c-1.5-1.5-2.2-3.7-1.8-5.9l9.5-47.5c0.2-1.3,0.9-2.4,1.8-3.3L292.6,24.5
			c13.4-12.6,34.6-12,47.2,1.5c12,12.8,12.1,32.6,0.3,45.5L235.9,175.5c-0.9,0.9-2.1,1.5-3.3,1.8l-47.5,9.5
			C184.6,187,184.1,187.2,183.6,187.2z M199.1,136.4l-7.2,36l36-7.2l103-103c7.7-8.2,7.2-21-0.9-28.7c-7.8-7.3-20-7.3-27.8,0
			L199.1,136.4z"/>
		<path class="st10" d="M174.1,196.7c-1.7,0-3.4-0.7-4.6-1.9c-2.6-2.5-2.6-6.7,0-9.2c0,0,0,0,0,0l9.5-9.5c2.6-2.6,6.7-2.6,9.2,0
			c2.6,2.6,2.6,6.7,0,9.2l-9.5,9.5C177.5,196,175.8,196.7,174.1,196.7z"/>
		<path class="st10" d="M315.4,93.9c-1.7,0-3.3-0.7-4.6-1.9l-38-38c-2.5-2.5-2.5-6.6,0-9.2c2.5-2.6,6.7-2.6,9.2,0c0,0,0,0,0,0
			L320,82.8c2.6,2.5,2.6,6.7,0,9.2c0,0,0,0,0,0C318.8,93.2,317.1,93.9,315.4,93.9z"/>
		<linearGradient id="SVGID_4_" gradientUnits="userSpaceOnUse" x1="167.7485" y1="209.7031" x2="284.7594" y2="209.7031">
			<stop  offset="0" style="stop-color:#800886"/>
			<stop  offset="1" style="stop-color:#990563"/>
		</linearGradient>
		<path style="opacity:0.59;fill:url(#SVGID_4_);" d="M278.2,235.8c-1.9,0-3.8-0.9-5-2.3l-17.5-21c-4.9-5.5-13.4-6-18.9-1.1
			c-0.4,0.4-0.8,0.7-1.1,1.1l-3.8,4.6c-4.7,5.6-11.4,8.9-18.7,9.3c-7.3,0.3-14.4-2.5-19.5-7.6l-24-23.9c-2.6-2.6-2.6-6.7,0-9.2
			c2.6-2.6,6.7-2.6,9.2,0l23.7,24.1c2.6,2.6,6.2,4,9.8,3.8c3.7-0.1,7.1-1.8,9.4-4.6l3.8-4.6c9.2-11,25.6-12.5,36.7-3.3
			c1.2,1,2.3,2.1,3.3,3.3l17.6,21c2.3,2.8,1.9,6.9-0.8,9.2c0,0,0,0,0,0C281.2,235.3,279.7,235.8,278.2,235.8z"/>
	</g>
</g>
</svg>
