<?xml version="1.0" encoding="utf-8"?>
<!-- Generator: Adobe Illustrator 21.0.0, SVG Export Plug-In . SVG Version: 6.00 Build 0)  -->
<svg version="1.1" id="Layer_1" xmlns="http://www.w3.org/2000/svg" xmlns:xlink="http://www.w3.org/1999/xlink" x="0px" y="0px"
	 viewBox="0 0 400 400" style="enable-background:new 0 0 400 400;" xml:space="preserve">
<style type="text/css">
	.st0{fill:#FFFFFF;}
	.st1{fill:url(#SVGID_1_);}
	.st2{fill:url(#SVGID_2_);}
	.st3{fill:url(#SVGID_3_);}
	.st4{fill:url(#SVGID_4_);}
	.st5{fill:url(#SVGID_5_);}
	.st6{fill:url(#SVGID_6_);}
	.st7{fill:url(#SVGID_7_);}
	.st8{fill:url(#SVGID_8_);}
	.st9{fill:#6D7C8C;}
	.st10{fill:none;}
	.st11{fill:url(#SVGID_9_);}
	.st12{fill:url(#SVGID_10_);}
	.st13{opacity:0.59;fill:url(#SVGID_11_);}
	.st14{fill:url(#SVGID_12_);}
	.st15{fill:url(#SVGID_13_);}
	.st16{fill:none;stroke:url(#SVGID_14_);stroke-width:1.381;stroke-miterlimit:10;}
	.st17{fill:url(#SVGID_15_);}
	.st18{fill:url(#SVGID_16_);}
	.st19{fill:#ECEFF1;}
	.st20{fill:#4CAF50;}
	.st21{fill:#FAFAFA;}
	.st22{fill:url(#SVGID_17_);}
	.st23{fill:#4B3954;}
	.st24{fill:#2DB5EA;}
</style>
<g>
	<g>
		<g>
			<linearGradient id="SVGID_1_" gradientUnits="userSpaceOnUse" x1="257.1181" y1="90.3772" x2="282.111" y2="90.3772">
				<stop  offset="0" style="stop-color:#8008A1"/>
				<stop  offset="1" style="stop-color:#C60582"/>
			</linearGradient>
			<circle class="st1" cx="269.6" cy="90.4" r="12.5"/>
			<g>
				<path class="st0" d="M343.7,102.9l-23.6,0v-43c0-10.7-8.8-19.5-19.5-19.5l-112.8,0c-2.1,0-4.2,0.9-5.6,2.5
					c-12.2,13.8-6.6,29.7,5.8,33.8v18.9c0,4,3.3,7.3,7.3,7.3h24.8h6.2h6.2V91.2c0-18.7,13.3-35.1,31.8-37.9
					c23.1-3.5,43.2,14.6,43.2,37.1v68.7c0,58.7-47.5,106.2-106.2,106.2c-41.9,0-80-25-96.8-62.5h90.6c20.6,0,37.5-16.9,37.5-37.5
					v-50h-12.5c0,13.7-11.2,25-25,25H75.5c-6.9,0-12.5,5.6-12.5,12.5v12.5c0,16.9,11.3,31.2,26.4,35.6c15.1,40,51,68.7,93.2,75v39.4
					h12.5v-37.5c1.9,0,4.4,0,6.2,0c1.9,0,4.4,0,6.2-0.6v38.1h37.5v-12.5h-26.8v-26.9c54.7-8.7,97.5-54.4,100-110.6h13.3
					c10.4,0,18.7-8.4,18.7-18.7v-7.5c8-2.6,13.1-10.2,12.5-18.9C362.3,110.3,353.6,102.9,343.7,102.9z M200.5,84.1v-6.2h20.6
					c-1.2,3.7-1.9,8.1-1.9,12.5h-12.5C203.3,90.4,200.5,87.6,200.5,84.1z M225.5,66v-0.6l-31.1,0c-3.3,0-6.2-2.5-6.4-5.7
					c-0.2-4,2.3-6.8,6.2-6.8h41.9C231.7,56.6,228,61,225.5,66z M75.5,165.4v-12.5H195c9.4,0,18.2-3.7,25.1-9.4v21.9
					c0,13.7-11.2,25-25,25h-94.6C86.8,190.3,75.5,179.1,75.5,165.4z M331.7,152.9h-13.4v-12.5h19.6v6.2
					C337.9,150.1,335.1,152.9,331.7,152.9z M351.3,122.1c-0.2,3.3-3.1,5.7-6.4,5.7l-6.1,0h-18.7v-12.5h25
					C349,115.4,351.6,118.1,351.3,122.1z"/>
				<rect x="125.5" y="165.4" class="st0" width="50" height="12.5"/>
			</g>
		</g>
	</g>
</g>
</svg>
