<?xml version="1.0" encoding="utf-8"?>
<!-- Generator: Adobe Illustrator 21.0.0, SVG Export Plug-In . SVG Version: 6.00 Build 0)  -->
<svg version="1.1" id="Layer_1" xmlns="http://www.w3.org/2000/svg" xmlns:xlink="http://www.w3.org/1999/xlink" x="0px" y="0px"
	 viewBox="0 0 400 400" style="enable-background:new 0 0 400 400;" xml:space="preserve">
<style type="text/css">
	.st0{fill:#800886;}
</style>
<g>
	<g>
		<g>
			<g>
				<g>
					<path class="st0" d="M330.9,150.5c-0.1-0.3-0.1-0.6-0.2-0.9c-0.1-0.3-0.2-0.5-0.3-0.8c-0.1-0.3-0.3-0.5-0.5-0.7
						c-0.2-0.3-0.4-0.5-0.6-0.7c-0.1-0.1-0.1-0.2-0.1-0.2L284,114.7V81.1c0-7.2-5.9-13.1-13.1-13.1h-32.3l-20.4-14.6
						c-5-3.6-12.1-3.6-17,0L180.9,68h-51.8c-7.2,0-13.1,5.9-13.1,13.1v33.6l-45.1,32.5c-0.1,0.1-0.1,0.2-0.2,0.2
						c-0.2,0.2-0.4,0.4-0.6,0.7c-0.2,0.2-0.3,0.4-0.5,0.7c-0.1,0.3-0.2,0.5-0.3,0.8s-0.2,0.6-0.2,0.9c0,0.1-0.1,0.2-0.1,0.3v147.6
						c0,3,1.7,5.5,2.8,8.3l0,0c0.1,0.1,0.1,0.1,0.2,0.1c2.6,3.2,6.8,5.1,11.1,5.2H317c4.3,0,8.5-1.9,11.1-5.2l0.1-0.1
						c0.1-0.1,0.1-0.1,0.1-0.1c1.7-2.2,2.7-4.9,2.7-7.7V150.8C331,150.7,330.9,150.6,330.9,150.5z M197.6,60.1
						c1.5-1.2,3.7-1.2,5.2,0l10.1,7.9h-25.4L197.6,60.1z M82.9,306l114.6-89c1.5-1.2,3.7-1.2,5.2,0l114.6,89H82.9L82.9,306z
						 M325,297.9l-114-88.5c-4.6-3.6-11.2-3.6-15.9,0L81,297.9V158.3l67.9,55.6c1.9,1.5,4.7,1.1,6.2-0.8c1.5-1.9,1.1-4.7-0.8-6.2
						l-72.5-56.4l28.3-23.9v33.7c0,0,4.4,4.4,7,4.4s4.6-2,5-4.4V81.6c-0.5-2.4,4-1.6,4-1.6h148c0,0,4.6-0.8,3.9,1.6v78.9
						c0.6,2.4,2.7,4.4,5.2,4.4c2.5,0,6.8-4.4,6.8-4.4v-34.4l28.7,24.1l-73.4,57c-1.2,1-1.9,2.5-1.7,4.1s1.2,2.9,2.7,3.5
						c1.4,0.6,3.1,0.4,4.4-0.6l68.5-56.2l5.8,140.7L325,297.9L325,297.9z"/>
					<path class="st0" d="M255,156.1v-17.5c0,0-25.8-52.6-54.8-52.6s-52.6,23.5-52.6,52.6s23.5,52.5,52.6,52.5c2.4,0,4.4-2,4.4-4.4
						s-2-4.4-4.4-4.4c-24.2,0-43.8-19.6-43.8-43.8s19.6-43.8,43.8-43.8s42.8,43.8,42.8,43.8v17.1c0,4.1-2.6,8.1-6.6,8.9
						c-5.6,1.2-10.4-3-10.4-8.3v-17.7c0,0-1.7-4.4-4.1-4.4s-4.4,2-4.4,4.4c0,9.7-7.9,17.5-17.5,17.5c-9.7,0-17.5-7.9-17.5-17.5
						c0-9.5,7.8-17.4,17.3-17.5c1.9,0,3.7-1.1,4.3-2.8c1.1-3-1.2-6-4.1-6c-11.8-0.1-22.1,7.8-25.4,19.1
						c-3.2,11.4,1.4,23.4,11.5,29.6c10.1,6.2,22.9,4.9,31.6-3c1,9.2,9,16.2,18.3,15.7C245.3,173.1,255,156.1,255,156.1z"/>
				</g>
			</g>
		</g>
	</g>
</g>
</svg>
