<?xml version="1.0" encoding="utf-8"?>
<!-- Generator: Adobe Illustrator 21.0.0, SVG Export Plug-In . SVG Version: 6.00 Build 0)  -->
<svg version="1.1" id="Layer_1" xmlns="http://www.w3.org/2000/svg" xmlns:xlink="http://www.w3.org/1999/xlink" x="0px" y="0px"
	 viewBox="0 0 400 400" style="enable-background:new 0 0 400 400;" xml:space="preserve">
<style type="text/css">
	.st0{fill:#800886;}
</style>
<g>
	<g>
		<g>
			<g>
				<path class="st0" d="M268.8,91h-82.6c-37.7,0-68.2,30.5-68.2,68.2v82.6c0,37.7,30.5,68.2,68.2,68.2h82.6
					c37.7,0,68.2-30.5,68.2-68.2v-82.7C337,121.5,306.5,91,268.8,91z M325,237.3c0,26.3-21.4,47.7-47.7,47.7h-86.7
					c-26.3,0-47.6-21.4-47.6-47.6v-86.8c0-26.3,21.4-47.6,47.6-47.6h86.8c26.3,0,47.6,21.4,47.6,47.6V237.3z"/>
			</g>
		</g>
		<g>
			<g>
				<path class="st0" d="M228,145.5c-30.1,0-54.5,24.4-54.5,54.5s24.4,54.5,54.5,54.5s54.5-24.4,54.5-54.5S258.2,145.5,228,145.5z
					 M228,234.1c-18.8,0-34.1-15.3-34.1-34.1s15.3-34.1,34.1-34.1s34.1,15.3,34.1,34.1S246.8,234.1,228,234.1z"/>
			</g>
		</g>
		<g>
			<g>
				<circle class="st0" cx="286.7" cy="141.4" r="7.3"/>
			</g>
		</g>
	</g>
</g>
</svg>
