<?xml version="1.0" encoding="utf-8"?>
<!-- Generator: Adobe Illustrator 21.0.0, SVG Export Plug-In . SVG Version: 6.00 Build 0)  -->
<svg version="1.1" id="Layer_1" xmlns="http://www.w3.org/2000/svg" xmlns:xlink="http://www.w3.org/1999/xlink" x="0px" y="0px"
	 viewBox="0 0 400 400" style="enable-background:new 0 0 400 400;" xml:space="preserve">
<style type="text/css">
	.st0{fill:#800886;}
</style>
<g>
	<g>
		<g>
			<g>
				<g>
					<path class="st0" d="M314.8,265.8L283.6,245l-27.7-18.4c-5.3-3.6-12.5-2.4-16.5,2.7l-17.2,22c-3.7,4.8-10.3,6.2-15.6,3.2
						c-11.6-6.5-25.4-12.6-55.8-43s-36.5-44.1-43-55.8c-2.9-5.3-1.6-11.9,3.2-15.6l22-17.2c5.1-3.9,6.2-11.1,2.7-16.5l-17.9-26.9
						l-21.4-32c-3.6-5.5-10.9-7.1-16.5-3.7L55.5,58.7C48.8,62.6,44,69,41.8,76.4c-6.7,24.6-8.1,78.7,78.7,165.5s141,85.5,165.5,78.7
						c7.4-2.1,13.8-7,17.7-13.7l14.8-24.6C321.9,276.8,320.3,269.5,314.8,265.8z"/>
					<path class="st0" d="M199.1,85.8c45.5,0.1,82.4,36.9,82.4,82.4c0,2.7,2.2,4.8,4.8,4.8c2.7,0,4.8-2.2,4.8-4.8
						c-0.1-50.9-41.3-92.1-92.1-92.1c-2.7,0-4.8,2.2-4.8,4.8C194.2,83.7,196.4,85.8,199.1,85.8z"/>
					<path class="st0" d="M199.1,114.9c29.4,0,53.3,23.9,53.3,53.3c0,2.7,2.2,4.8,4.8,4.8c2.7,0,4.8-2.2,4.8-4.8
						c0-34.8-28.2-63-63-63c-2.7,0-4.8,2.2-4.8,4.8C194.2,112.8,196.4,114.9,199.1,114.9z"/>
					<path class="st0" d="M199.1,144c13.4,0,24.2,10.9,24.2,24.2c0,2.7,2.2,4.8,4.8,4.8c2.7,0,4.8-2.2,4.8-4.8
						c0-18.7-15.2-33.9-33.9-33.9c-2.7,0-4.8,2.2-4.8,4.8C194.2,141.9,196.4,144,199.1,144z"/>
				</g>
			</g>
		</g>
	</g>
</g>
</svg>
