<?xml version="1.0" encoding="utf-8"?>
<!-- Generator: Adobe Illustrator 21.0.0, SVG Export Plug-In . SVG Version: 6.00 Build 0)  -->
<svg version="1.1" id="Layer_1" xmlns="http://www.w3.org/2000/svg" xmlns:xlink="http://www.w3.org/1999/xlink" x="0px" y="0px"
	 viewBox="0 0 400 400" style="enable-background:new 0 0 400 400;" xml:space="preserve">
<style type="text/css">
	.st0{fill:#800886;}
</style>
<g>
	<g>
		<g>
			<g>
				<path class="st0" d="M210.2,59h-50.4c-2.8,0-5,2.3-5,5c0,2.8,2.3,5,5,5h50.4c2.8,0,5-2.3,5-5C215.2,61.3,213,59,210.2,59z"/>
			</g>
		</g>
		<g>
			<g>
				<path class="st0" d="M251.4,61.7c-0.8-1.7-2.6-2.7-4.4-2.7l-5,0c-2.8,0-5,2.3-5,5c0,2.8,2.3,5,5,5h5
					C250.5,69,253.1,65.3,251.4,61.7z"/>
			</g>
		</g>
		<g>
			<g>
				<path class="st0" d="M191.6,306h-15.3c-8,0-14.4,6.4-14.4,14.2v0.6c0,7.9,6.5,14.2,14.4,14.2h15.3c8,0,14.4-6.4,14.4-14.2v-0.6
					C206,312.4,199.6,306,191.6,306z M196,322.2c0,2.1-1.6,3.8-3.6,3.8h-11.8c-2,0-3.6-1.6-3.6-3.8v-2.4c0-2.1,1.6-3.8,3.6-3.8h11.8
					c2,0,3.6,1.6,3.6,3.8V322.2z"/>
			</g>
		</g>
		<g>
			<g>
				<path class="st0" d="M255.3,45H118.7c-10.3,0-18.7,8.4-18.7,18.7v272.6c0,10.3,8.4,18.7,18.7,18.7h136.6
					c10.3,0,18.7-8.4,18.7-18.7V63.7C274,53.4,265.6,45,255.3,45z M264,336.6c0,4.6-3.7,8.4-8.3,8.4H117.3c-4.6,0-8.3-3.8-8.3-8.3
					V63.3c0-4.6,3.7-8.3,8.3-8.3h138.4c4.6,0,8.3,3.7,8.3,8.3V336.6L264,336.6z"/>
			</g>
		</g>
		<g>
			<g>
				<path class="st0" d="M268.8,74H105.2c-2.9,0-5.2,2.3-5.2,5.2v217.6c0,2.9,2.3,5.2,5.2,5.2h163.6c2.9,0,5.2-2.3,5.2-5.2V79.1
					C274,76.3,271.7,74,268.8,74z M264,292H109V84h155V292z"/>
			</g>
		</g>
	</g>
</g>
</svg>
