<?xml version="1.0" encoding="utf-8"?>
<!-- Generator: Adobe Illustrator 21.0.0, SVG Export Plug-In . SVG Version: 6.00 Build 0)  -->
<svg version="1.1" id="Layer_1" xmlns="http://www.w3.org/2000/svg" xmlns:xlink="http://www.w3.org/1999/xlink" x="0px" y="0px"
	 viewBox="0 0 400 400" style="enable-background:new 0 0 400 400;" xml:space="preserve">
<style type="text/css">
	.st0{fill:#800886;}
</style>
<g>
	<g>
		<path class="st0" d="M237.9,172.5L179,140.2c-3.4-1.9-7.4-1.8-10.7,0.2s-5.3,5.5-5.3,9.3v64c0,3.8,2,7.3,5.3,9.3
			c1.7,1,3.6,1.5,5.6,1.5c1.8,0,3.5-0.4,5.1-1.3l58.9-31.7c3.5-1.9,5.7-5.5,5.7-9.5C243.6,178.1,241.4,174.4,237.9,172.5z
			 M175,205.7v-47.8l44.1,24.1L175,205.7z"/>
		<path class="st0" d="M333,130.6v-0.3c-0.2-2.2-2.5-21.5-11.9-31.4c-10.9-11.6-23.2-13-29.2-13.7c-0.5-0.1-0.9-0.1-1.3-0.2h-0.1
			c-35.8-2.6-89.8-3-90.3-3l0,0l0,0c-0.5,0-54.6,0.4-90.6,3h-0.5c-0.4,0.1-0.8,0.1-1.3,0.2c-5.9,0.7-18.1,2.1-29,14.1
			c-9,9.7-11.6,28.7-11.8,30.8v0.3c-0.1,0.9-2,22.5-2,44.1v20.2c0,21.7,1.9,43.2,2,44.1v0.1c0.2,2.1,2.5,21.2,11.9,31
			c10.2,11.2,23.2,12.7,30.1,13.5c1.1,0.1,2,0.2,2.7,0.3l0.6,0.1c20.7,2,85.4,2.9,88.1,3h-0.3h0.1c0.5,0,54.6-0.4,90.3-3h0.5
			c0.5-0.1,1-0.1,1.5-0.2c5.8-0.6,18-1.9,28.7-13.7c9-9.7,11.6-28.7,11.8-30.8V239c0.1-0.9,2-22.5,2-44.1v-20.2
			C335,153,333.1,131.5,333,130.6z M310.7,195c0,19.6-1.7,39.8-1.9,41.7c-0.7,5.1-3.3,16.8-7.6,21.5c-6.6,7.3-13.4,8-18.3,8.5
			c-0.6,0.1-1.2,0.1-1.7,0.2c-33.8,2.4-84.7,2.8-87,2.8c-2.6,0-65-1-84.6-2.8c-1-0.2-2.1-0.3-3.2-0.4c-5.8-0.7-13.7-1.6-19.8-8.3
			l-0.1-0.2c-4.2-4.4-6.8-15.3-7.5-21.3c-0.1-1.4-1.9-21.8-1.9-41.7v-19.8c0-19.6,1.7-39.8,1.9-41.7c0.8-6,3.5-17,7.6-21.5
			c6.8-7.5,14-8.3,18.7-8.8c0.5-0.1,0.9-0.1,1.3-0.2c34.3-2.5,85.5-2.8,87.4-2.8c1.8,0,53,0.4,87.1,2.8c0.4,0.1,0.9,0.1,1.4,0.2
			c4.9,0.6,12.2,1.4,19,8.6l0.1,0.1c4.2,4.4,6.8,15.5,7.5,21.6c0.1,1.3,1.9,21.8,1.9,41.7V195H310.7z"/>
	</g>
</g>
</svg>
